<mxfile host="Electron" agent="Mozilla/5.0 (Windows NT 10.0; Win64; x64) AppleWebKit/537.36 (KHTML, like Gecko) draw.io/28.1.2 Chrome/138.0.7204.243 Electron/37.4.0 Safari/537.36" version="28.1.2">
  <diagram name="Page-1" id="dnHYyrUetDSlkgRNpfG9">
    <mxGraphModel dx="692" dy="595" grid="1" gridSize="10" guides="1" tooltips="1" connect="1" arrows="1" fold="1" page="1" pageScale="1" pageWidth="850" pageHeight="1100" math="0" shadow="0">
      <root>
        <mxCell id="0" />
        <mxCell id="1" parent="0" />
        <mxCell id="1LbE-fUW5GEii-suh7Fu-3" value="" style="edgeStyle=orthogonalEdgeStyle;rounded=0;orthogonalLoop=1;jettySize=auto;html=1;" parent="1" source="1LbE-fUW5GEii-suh7Fu-1" edge="1">
          <mxGeometry relative="1" as="geometry">
            <mxPoint x="380" y="230" as="targetPoint" />
          </mxGeometry>
        </mxCell>
        <mxCell id="1LbE-fUW5GEii-suh7Fu-1" value="START" style="ellipse;whiteSpace=wrap;html=1;" parent="1" vertex="1">
          <mxGeometry x="320" y="60" width="120" height="80" as="geometry" />
        </mxCell>
        <mxCell id="1LbE-fUW5GEii-suh7Fu-6" value="" style="edgeStyle=orthogonalEdgeStyle;rounded=0;orthogonalLoop=1;jettySize=auto;html=1;" parent="1" source="1LbE-fUW5GEii-suh7Fu-4" target="1LbE-fUW5GEii-suh7Fu-5" edge="1">
          <mxGeometry relative="1" as="geometry" />
        </mxCell>
        <mxCell id="1LbE-fUW5GEii-suh7Fu-4" value="N" style="shape=parallelogram;perimeter=parallelogramPerimeter;whiteSpace=wrap;html=1;fixedSize=1;" parent="1" vertex="1">
          <mxGeometry x="320" y="230" width="120" height="60" as="geometry" />
        </mxCell>
        <mxCell id="1LbE-fUW5GEii-suh7Fu-9" value="" style="edgeStyle=orthogonalEdgeStyle;rounded=0;orthogonalLoop=1;jettySize=auto;html=1;" parent="1" source="1LbE-fUW5GEii-suh7Fu-5" target="1LbE-fUW5GEii-suh7Fu-8" edge="1">
          <mxGeometry relative="1" as="geometry" />
        </mxCell>
        <mxCell id="1LbE-fUW5GEii-suh7Fu-5" value="GIAI THỪA = 1&lt;br&gt;I =1" style="whiteSpace=wrap;html=1;" parent="1" vertex="1">
          <mxGeometry x="320" y="370" width="120" height="60" as="geometry" />
        </mxCell>
        <mxCell id="1LbE-fUW5GEii-suh7Fu-11" style="edgeStyle=orthogonalEdgeStyle;rounded=0;orthogonalLoop=1;jettySize=auto;html=1;" parent="1" source="1LbE-fUW5GEii-suh7Fu-8" target="1LbE-fUW5GEii-suh7Fu-12" edge="1">
          <mxGeometry relative="1" as="geometry">
            <mxPoint x="580" y="575" as="targetPoint" />
          </mxGeometry>
        </mxCell>
        <mxCell id="1LbE-fUW5GEii-suh7Fu-15" value="YES" style="edgeLabel;html=1;align=center;verticalAlign=middle;resizable=0;points=[];" parent="1LbE-fUW5GEii-suh7Fu-11" vertex="1" connectable="0">
          <mxGeometry x="-0.02" relative="1" as="geometry">
            <mxPoint as="offset" />
          </mxGeometry>
        </mxCell>
        <mxCell id="1LbE-fUW5GEii-suh7Fu-14" value="" style="edgeStyle=orthogonalEdgeStyle;rounded=0;orthogonalLoop=1;jettySize=auto;html=1;" parent="1" source="1LbE-fUW5GEii-suh7Fu-8" target="1LbE-fUW5GEii-suh7Fu-13" edge="1">
          <mxGeometry relative="1" as="geometry" />
        </mxCell>
        <mxCell id="1LbE-fUW5GEii-suh7Fu-17" value="NO" style="edgeLabel;html=1;align=center;verticalAlign=middle;resizable=0;points=[];" parent="1LbE-fUW5GEii-suh7Fu-14" vertex="1" connectable="0">
          <mxGeometry x="-0.108" y="-1" relative="1" as="geometry">
            <mxPoint as="offset" />
          </mxGeometry>
        </mxCell>
        <mxCell id="1LbE-fUW5GEii-suh7Fu-8" value="I=&amp;lt;N" style="rhombus;whiteSpace=wrap;html=1;" parent="1" vertex="1">
          <mxGeometry x="300" y="530" width="160" height="90" as="geometry" />
        </mxCell>
        <mxCell id="1LbE-fUW5GEii-suh7Fu-16" style="edgeStyle=orthogonalEdgeStyle;rounded=0;orthogonalLoop=1;jettySize=auto;html=1;entryX=0.5;entryY=1;entryDx=0;entryDy=0;" parent="1" source="1LbE-fUW5GEii-suh7Fu-12" target="1LbE-fUW5GEii-suh7Fu-8" edge="1">
          <mxGeometry relative="1" as="geometry">
            <Array as="points">
              <mxPoint x="580" y="640" />
              <mxPoint x="380" y="640" />
            </Array>
          </mxGeometry>
        </mxCell>
        <mxCell id="1LbE-fUW5GEii-suh7Fu-12" value="GIAI THỪA =1*I&lt;br&gt;I=I+1" style="rounded=0;whiteSpace=wrap;html=1;" parent="1" vertex="1">
          <mxGeometry x="520" y="545" width="120" height="60" as="geometry" />
        </mxCell>
        <mxCell id="1LbE-fUW5GEii-suh7Fu-19" style="edgeStyle=orthogonalEdgeStyle;rounded=0;orthogonalLoop=1;jettySize=auto;html=1;" parent="1" source="1LbE-fUW5GEii-suh7Fu-13" target="1LbE-fUW5GEii-suh7Fu-20" edge="1">
          <mxGeometry relative="1" as="geometry">
            <mxPoint x="370" y="750" as="targetPoint" />
          </mxGeometry>
        </mxCell>
        <mxCell id="1LbE-fUW5GEii-suh7Fu-13" value="GIAI THỪA&amp;nbsp;" style="whiteSpace=wrap;html=1;" parent="1" vertex="1">
          <mxGeometry x="100" y="720" width="120" height="60" as="geometry" />
        </mxCell>
        <mxCell id="1LbE-fUW5GEii-suh7Fu-20" value="END&lt;div&gt;&lt;br&gt;&lt;/div&gt;" style="ellipse;whiteSpace=wrap;html=1;" parent="1" vertex="1">
          <mxGeometry x="310" y="710" width="120" height="80" as="geometry" />
        </mxCell>
      </root>
    </mxGraphModel>
  </diagram>
</mxfile>
